<mxfile host="app.diagrams.net" modified="2024-02-14T17:02:15.825Z" agent="Mozilla/5.0 (Windows NT 10.0; Win64; x64) AppleWebKit/537.36 (KHTML, like Gecko) Chrome/121.0.0.0 Safari/537.36" version="23.1.4" etag="D5hpY3Zk6fWIUYai1R5D" type="github">
  <diagram name="Page-1" id="zJ8Bu4FQz5SG10p1R8TM">
    <mxGraphModel>
      <root>
        <mxCell id="0" />
        <mxCell id="1" parent="0" />
      </root>
    </mxGraphModel>
  </diagram>
</mxfile>
